<svg width="32" height="32" viewBox="0 0 32 32" fill="none" xmlns="http://www.w3.org/2000/svg">
<rect width="32" height="32" rx="2.4586" fill="#EA6B45"/>
<mask id="mask0_1476_1087" style="mask-type:alpha" maskUnits="userSpaceOnUse" x="8" y="8" width="16" height="16">
<rect x="8" y="8" width="16" height="16" fill="#D9D9D9"/>
</mask>
<g mask="url(#mask0_1476_1087)">
<path d="M15.3335 19.3334H16.6668V18.6667H17.3335C17.5224 18.6667 17.6808 18.6027 17.8088 18.4747C17.9364 18.3472 18.0002 18.189 18.0002 18.0001V16.0001C18.0002 15.8112 17.9364 15.6527 17.8088 15.5247C17.6808 15.3972 17.5224 15.3334 17.3335 15.3334H15.3335V14.6667H18.0002V13.3334H16.6668V12.6667H15.3335V13.3334H14.6668C14.4779 13.3334 14.3197 13.3972 14.1922 13.5247C14.0642 13.6527 14.0002 13.8112 14.0002 14.0001V16.0001C14.0002 16.189 14.0642 16.3472 14.1922 16.4747C14.3197 16.6027 14.4779 16.6667 14.6668 16.6667H16.6668V17.3334H14.0002V18.6667H15.3335V19.3334ZM10.6668 21.3334C10.3002 21.3334 9.98638 21.203 9.7255 20.9421C9.46416 20.6807 9.3335 20.3667 9.3335 20.0001V12.0001C9.3335 11.6334 9.46416 11.3196 9.7255 11.0587C9.98638 10.7974 10.3002 10.6667 10.6668 10.6667H21.3335C21.7002 10.6667 22.0142 10.7974 22.2755 11.0587C22.5364 11.3196 22.6668 11.6334 22.6668 12.0001V20.0001C22.6668 20.3667 22.5364 20.6807 22.2755 20.9421C22.0142 21.203 21.7002 21.3334 21.3335 21.3334H10.6668Z" fill="white"/>
</g>
</svg>
