<svg width="32" height="32" viewBox="0 0 32 32" fill="none" xmlns="http://www.w3.org/2000/svg">
<rect width="32" height="32" rx="4" fill="#AECD5E"/>
<mask id="mask0_1476_1100" style="mask-type:alpha" maskUnits="userSpaceOnUse" x="8" y="8" width="16" height="16">
<rect x="8" y="8" width="16" height="16" fill="#D9D9D9"/>
</mask>
<g mask="url(#mask0_1476_1100)">
<path d="M18.2002 19.1333L19.1335 18.1999L16.6668 15.7333V12.6666H15.3335V16.2666L18.2002 19.1333ZM16.0002 22.6666C15.0779 22.6666 14.2113 22.4915 13.4002 22.1413C12.5891 21.7915 11.8835 21.3166 11.2835 20.7166C10.6835 20.1166 10.2086 19.411 9.85883 18.5999C9.50861 17.7888 9.3335 16.9221 9.3335 15.9999C9.3335 15.0777 9.50861 14.211 9.85883 13.3999C10.2086 12.5888 10.6835 11.8833 11.2835 11.2833C11.8835 10.6833 12.5891 10.2081 13.4002 9.85792C14.2113 9.50814 15.0779 9.33325 16.0002 9.33325C16.9224 9.33325 17.7891 9.50814 18.6002 9.85792C19.4113 10.2081 20.1168 10.6833 20.7168 11.2833C21.3168 11.8833 21.7917 12.5888 22.1415 13.3999C22.4917 14.211 22.6668 15.0777 22.6668 15.9999C22.6668 16.9221 22.4917 17.7888 22.1415 18.5999C21.7917 19.411 21.3168 20.1166 20.7168 20.7166C20.1168 21.3166 19.4113 21.7915 18.6002 22.1413C17.7891 22.4915 16.9224 22.6666 16.0002 22.6666Z" fill="white"/>
</g>
</svg>
