<svg width="32" height="32" viewBox="0 0 32 32" fill="none" xmlns="http://www.w3.org/2000/svg">
<rect width="32" height="32" rx="4" fill="#4C7FBD"/>
<mask id="mask0_1476_1060" style="mask-type:alpha" maskUnits="userSpaceOnUse" x="8" y="8" width="16" height="16">
<rect x="8" y="8" width="16" height="16" fill="#D9D9D9"/>
</mask>
<g mask="url(#mask0_1476_1060)">
<path d="M16.6668 21.3334C16.6668 20.3223 16.4751 19.3723 16.0915 18.4834C15.7084 17.5945 15.1835 16.8167 14.5168 16.1501C13.8502 15.4834 13.0724 14.9585 12.1835 14.5754C11.2946 14.1919 10.3446 14.0001 9.3335 14.0001V12.0001C9.3335 11.6334 9.46416 11.3196 9.7255 11.0587C9.98638 10.7974 10.3002 10.6667 10.6668 10.6667H21.3335C21.7002 10.6667 22.0142 10.7974 22.2755 11.0587C22.5364 11.3196 22.6668 11.6334 22.6668 12.0001V20.0001C22.6668 20.3667 22.5364 20.6807 22.2755 20.9421C22.0142 21.203 21.7002 21.3334 21.3335 21.3334H16.6668ZM14.0002 21.3334C14.0002 20.0334 13.5475 18.9305 12.6422 18.0247C11.7364 17.1194 10.6335 16.6667 9.3335 16.6667V15.3334C10.1668 15.3334 10.9475 15.4916 11.6755 15.8081C12.4031 16.125 13.0364 16.5527 13.5755 17.0914C14.1142 17.6305 14.5419 18.2641 14.8588 18.9921C15.1753 19.7196 15.3335 20.5001 15.3335 21.3334H14.0002ZM11.3335 21.3334C11.3335 20.7779 11.1391 20.3056 10.7502 19.9167C10.3613 19.5279 9.88905 19.3334 9.3335 19.3334V18.0001C10.2557 18.0001 11.0417 18.325 11.6915 18.9747C12.3417 19.625 12.6668 20.4112 12.6668 21.3334H11.3335ZM17.8335 15.8667L20.5002 14.3334L17.8335 12.8001L15.1668 14.3334L17.8335 15.8667ZM17.8335 17.9001L19.6668 16.8334V15.4334L17.8335 16.5001L16.0002 15.4334V16.8334L17.8335 17.9001Z" fill="white"/>
</g>
</svg>
